<?xml version="1.0" encoding="UTF-8" standalone="no"?>
<!-- Created with Inkscape (http://www.inkscape.org/) -->

<svg
   xmlns:dc="http://purl.org/dc/elements/1.1/"
   xmlns:cc="http://creativecommons.org/ns#"
   xmlns:rdf="http://www.w3.org/1999/02/22-rdf-syntax-ns#"
   xmlns:svg="http://www.w3.org/2000/svg"
   xmlns="http://www.w3.org/2000/svg"
   xmlns:sodipodi="http://sodipodi.sourceforge.net/DTD/sodipodi-0.dtd"
   xmlns:inkscape="http://www.inkscape.org/namespaces/inkscape"
   version="1.1"
   id="svg2"
   width="264"
   height="583"
   viewBox="0 0 264 583"
   sodipodi:docname="logoUfape.svg"
   inkscape:version="0.92.4 (5da689c313, 2019-01-14)">
  <metadata
     id="metadata8">
    <rdf:RDF>
      <cc:Work
         rdf:about="">
        <dc:format>image/svg+xml</dc:format>
        <dc:type
           rdf:resource="http://purl.org/dc/dcmitype/StillImage" />
        <dc:title></dc:title>
      </cc:Work>
    </rdf:RDF>
  </metadata>
  <defs
     id="defs6" />
  <sodipodi:namedview
     pagecolor="#ffffff"
     bordercolor="#666666"
     borderopacity="1"
     objecttolerance="10"
     gridtolerance="10"
     guidetolerance="10"
     inkscape:pageopacity="0"
     inkscape:pageshadow="2"
     inkscape:window-width="1920"
     inkscape:window-height="995"
     id="namedview4"
     showgrid="false"
     showguides="false"
     inkscape:zoom="0.80960549"
     inkscape:cx="66.30687"
     inkscape:cy="211.61155"
     inkscape:window-x="0"
     inkscape:window-y="28"
     inkscape:window-maximized="1"
     inkscape:current-layer="svg2" />
  <path
     style="fill:#ffffff;stroke:none;stroke-width:1px;stroke-linecap:butt;stroke-linejoin:miter;stroke-opacity:1;fill-opacity:1"
     d="M 147.60352 1.5449219 C 147.60352 1.5449219 106.53344 16.67502 94.027344 33.041016 C 81.521253 49.407012 85.227125 62.994571 87.388672 68.398438 C 89.550218 73.802302 93.668628 80.749382 96.498047 83.683594 C 100.66674 88.006687 113.79045 115.0251 84.300781 124.59766 C 54.811109 134.17023 43.848882 127.84024 20.689453 154.55078 C -4.2267994 183.28752 20.380561 228.04221 29.953125 235.29883 L 230.35938 235.29883 C 230.35938 235.29883 281.00092 201.33342 230.97656 144.51562 C 230.97656 144.51562 234.06479 169.52764 221.4043 178.17383 C 221.4043 178.17383 232.2115 133.39813 197.93555 106.5332 C 197.93555 106.5332 199.47911 153.9324 153.00586 183.11328 C 153.00586 183.11328 202.25956 102.51963 184.34961 75.037109 C 184.34961 75.037109 180.48961 65.617552 166.28516 58.978516 C 152.08071 52.33948 140.80859 51.722656 140.80859 51.722656 C 140.80859 51.722656 120.73842 49.870631 126.60547 29.335938 C 132.47253 8.8012444 147.60352 1.5449219 147.60352 1.5449219 z M 142.35352 65.154297 C 209.67025 78.123577 142.66211 168.60156 142.66211 168.60156 C 182.80512 91.094686 142.35352 65.154297 142.35352 65.154297 z M 107.92383 125.83203 C 107.92383 125.83203 109.62225 134.63417 65.310547 153.7793 C 65.310547 153.7793 39.371458 163.19581 32.732422 198.86133 C 32.732422 198.86133 23.77645 160.26378 70.712891 141.89062 C 70.712891 141.89062 92.175417 135.71339 107.92383 125.83203 z M 212.14062 153.7793 C 204.42083 161.19032 193.61328 186.20117 193.61328 186.20117 C 172.6154 240.85742 134.32422 223.56641 134.32422 223.56641 C 152.85176 223.8752 180.02553 205.65629 185.89258 184.34961 C 191.75964 163.04294 212.14063 153.7793 212.14062 153.7793 z M 45.615234 245.49023 C 37.403828 245.49023 30.792969 252.10109 30.792969 260.3125 L 30.792969 264.94336 C 30.792969 273.15477 37.403828 279.76562 45.615234 279.76562 L 217.30273 279.76562 C 225.51414 279.76562 232.125 273.15477 232.125 264.94336 L 232.125 260.3125 C 232.125 252.10109 225.51414 245.49023 217.30273 245.49023 L 45.615234 245.49023 z M 29.708984 286.48242 L 29.708984 524.91992 L 233.20898 524.91992 L 233.20898 286.48242 L 29.708984 286.48242 z M 91.080078 299.92383 L 91.080078 322.26758 L 91.080078 387.29297 L 91.080078 479.98828 C 91.080079 492.79644 80.523237 503.10742 67.410156 503.10742 C 54.297074 503.10742 43.740234 492.79644 43.740234 479.98828 L 43.740234 387.29297 L 43.740234 322.26758 L 43.740234 300.29297 A 27.521894 26.881926 0 0 0 67.296875 313.33008 A 27.521894 26.881926 0 0 0 91.080078 299.92383 z M 190.12305 302.92578 A 23.777014 23.777014 0 0 1 213.90039 326.70312 A 23.777014 23.777014 0 0 1 190.12305 350.47852 A 23.777014 23.777014 0 0 1 166.3457 326.70312 A 23.777014 23.777014 0 0 1 190.12305 302.92578 z M 104.2793 303.23438 L 127.07617 303.23438 L 149.87109 303.23438 L 149.87109 326.03125 L 149.87109 336.05078 L 149.87109 481.54688 C 149.87109 494.17608 139.7054 504.34375 127.07617 504.34375 C 114.44694 504.34375 104.2793 494.1761 104.2793 481.54688 L 104.2793 336.05078 L 104.2793 326.03125 L 104.2793 303.23438 z M 189.50586 352.64062 L 191.97656 352.64062 C 204.80688 352.64063 215.13477 362.97046 215.13477 375.80078 L 215.13477 482.95117 C 215.13477 495.78149 204.80688 506.11133 191.97656 506.11133 L 189.50586 506.11133 C 176.67554 506.11133 166.3457 495.78149 166.3457 482.95117 L 166.3457 375.80078 C 166.3457 362.97046 176.67554 352.64063 189.50586 352.64062 z M 49.273438 536.23828 L 49.273438 557.33594 C 49.273438 562.31757 50.522813 566.02708 53.021484 568.46289 C 55.520156 570.8987 59.324293 572.11523 64.431641 572.11523 C 69.554703 572.11523 73.36461 570.8987 75.863281 568.46289 C 78.361953 566.02708 79.611328 562.31757 79.611328 557.33594 L 79.611328 536.23828 L 70.537109 536.23828 L 70.537109 557.33594 C 70.537109 560.2432 70.056266 562.32484 69.097656 563.58203 C 68.154761 564.82351 66.600299 565.44531 64.431641 565.44531 C 62.278697 565.44531 60.722282 564.82351 59.763672 563.58203 C 58.820777 562.32484 58.349609 560.2432 58.349609 557.33594 L 58.349609 536.23828 L 49.273438 536.23828 z M 88.498047 536.23828 L 88.498047 571.43164 L 97.574219 571.43164 L 97.574219 556.51172 L 112.07031 556.51172 L 112.07031 549.65039 L 97.574219 549.65039 L 97.574219 543.09766 L 112.99023 543.09766 L 112.99023 536.23828 L 88.498047 536.23828 z M 124.77539 536.23828 L 111.74023 571.43164 L 120.86328 571.43164 L 123.10352 565.01953 L 137.29297 565.01953 L 139.50977 571.43164 L 148.63086 571.43164 L 135.5957 536.23828 L 124.77539 536.23828 z M 153.27539 536.23828 L 153.27539 571.43164 L 162.35156 571.43164 L 162.35156 559.22266 L 168.33789 559.22266 C 172.81664 559.22266 176.25 558.23203 178.63867 556.25195 C 181.04305 554.25616 182.24609 551.41176 182.24609 547.71875 C 182.24609 544.04146 181.04305 541.2125 178.63867 539.23242 C 176.25 537.23663 172.81664 536.23828 168.33789 536.23828 L 153.27539 536.23828 z M 188.63477 536.23828 L 188.63477 571.43164 L 213.64453 571.43164 L 213.64453 564.57227 L 197.70898 564.57227 L 197.70898 556.51172 L 212.20703 556.51172 L 212.20703 549.65039 L 197.70898 549.65039 L 197.70898 543.09766 L 213.125 543.09766 L 213.125 536.23828 L 188.63477 536.23828 z M 162.35156 542.81445 L 167.37109 542.81445 C 169.13116 542.81445 170.49061 543.23929 171.44922 544.08789 C 172.40783 544.9365 172.88672 546.14726 172.88672 547.71875 C 172.88672 549.29024 172.40783 550.50873 171.44922 551.37305 C 170.49061 552.22165 169.13116 552.64453 167.37109 552.64453 L 162.35156 552.64453 L 162.35156 542.81445 z M 130.19727 544.48828 L 135.00586 558.49023 L 125.36523 558.49023 L 130.19727 544.48828 z "
     id="path817" />
</svg>
