<svg xmlns="http://www.w3.org/2000/svg" width="27.536" height="30.343" viewBox="0 0 27.536 30.343">
  <path id="Icon_simple-email" data-name="Icon simple-email" d="M29.167,14a15.649,15.649,0,0,1-.506,3.395,9.822,9.822,0,0,1-1.32,2.981A6.964,6.964,0,0,1,25.1,22.5a6.315,6.315,0,0,1-3.267.806,4.736,4.736,0,0,1-2.36-.578,4.045,4.045,0,0,1-1.6-1.64,5.056,5.056,0,0,1-4.281,2.151,4.354,4.354,0,0,1-3.738-2.01A6.579,6.579,0,0,1,8.928,18.9a10.042,10.042,0,0,1-.121-3.034,14.111,14.111,0,0,1,.927-3.721A10.113,10.113,0,0,1,11.445,9.3,7.236,7.236,0,0,1,13.8,7.48a6.561,6.561,0,0,1,2.859-.635,8.891,8.891,0,0,1,1.71.146,7,7,0,0,1,1.327.4,7.178,7.178,0,0,1,1.1.581q.506.325,1.011.667l-.831,9.557A3.176,3.176,0,0,0,21,19.311a1.565,1.565,0,0,0,.341.69,1.229,1.229,0,0,0,.554.36,2.055,2.055,0,0,0,1.945-.383,4.146,4.146,0,0,0,1.043-1.327,8.549,8.549,0,0,0,.7-1.995,13.687,13.687,0,0,0,.308-2.484,15.875,15.875,0,0,0-.39-4.642,9.226,9.226,0,0,0-1.718-3.591A7.977,7.977,0,0,0,20.7,3.623,11.177,11.177,0,0,0,16.214,2.8a9.906,9.906,0,0,0-4.437.967A10.18,10.18,0,0,0,8.406,6.45,12.868,12.868,0,0,0,6.2,10.483a18.176,18.176,0,0,0-.927,5.024,16.709,16.709,0,0,0,.468,5.128,9.26,9.26,0,0,0,1.873,3.675,7.818,7.818,0,0,0,3.174,2.207,12.176,12.176,0,0,0,4.382.732,15,15,0,0,0,2.875-.309c.474-.1.927-.209,1.348-.337a10.175,10.175,0,0,0,1.165-.421l.6,2.7a6.673,6.673,0,0,1-1.3.645,12.539,12.539,0,0,1-1.54.446,15.023,15.023,0,0,1-3.216.361,16.865,16.865,0,0,1-5.863-.944,10.787,10.787,0,0,1-4.274-2.81A11.8,11.8,0,0,1,2.4,21.95a19.792,19.792,0,0,1-.716-6.444A19.645,19.645,0,0,1,2.917,9.325a15.3,15.3,0,0,1,2.97-4.909,13.531,13.531,0,0,1,4.53-3.236A14.183,14.183,0,0,1,16.284,0a14.807,14.807,0,0,1,5.685,1.018,11.057,11.057,0,0,1,4.1,2.865,11.75,11.75,0,0,1,2.435,4.424,16.915,16.915,0,0,1,.66,5.7ZM12.882,15.858a6.45,6.45,0,0,0,.337,3.2,1.715,1.715,0,0,0,1.646,1.08,1.822,1.822,0,0,0,.565-.1,2.015,2.015,0,0,0,.651-.39,3.471,3.471,0,0,0,.66-.8,6.112,6.112,0,0,0,.607-1.348L18,10.076a3.877,3.877,0,0,0-1.011-.133,3.488,3.488,0,0,0-1.678.385,3.322,3.322,0,0,0-1.187,1.133,6.637,6.637,0,0,0-.789,1.854,15.759,15.759,0,0,0-.447,2.541Z" transform="translate(-1.656 0.003)" fill="#fff"/>
</svg>
