<svg xmlns="http://www.w3.org/2000/svg" width="51.828" height="67.379" viewBox="0 0 51.828 67.379">
  <path id="Icon_ionic-ios-water" data-name="Icon ionic-ios-water" d="M48.213,19.313A72.426,72.426,0,0,0,33.506,3.668a1.385,1.385,0,0,0-1.684-.016,71.539,71.539,0,0,0-14.658,15.63c-6.041,8.422-10.2,17.557-10.4,27.68,0,.194-.016.4-.016.6A21.167,21.167,0,0,0,8.515,56a22.757,22.757,0,0,0,2.462,4.26,26.736,26.736,0,0,0,21.671,10.5c14.318,0,25.93-10.382,25.93-23.193C58.578,37.243,54.205,27.768,48.213,19.313ZM34.284,62.12H34.2a1.42,1.42,0,0,1-.421-2.77c7.3-2.3,11.273-6.236,13.994-13.087a1.409,1.409,0,0,1,2.721.5v.227C50.48,55.35,43.224,62.12,34.284,62.12Z" transform="translate(-6.75 -3.374)"/>
</svg>
