<svg xmlns="http://www.w3.org/2000/svg" width="72.484" height="67.07" viewBox="0 0 72.484 67.07">
  <g id="Icon_ionic-md-restaurant" data-name="Icon ionic-md-restaurant" transform="translate(-3.41 -4.5)">
    <path id="Caminho_4" data-name="Caminho 4" d="M23.732,41.412l10.8-10.524L7.815,5.042a14.553,14.553,0,0,0,0,20.862Z" transform="translate(0 0.804)"/>
    <path id="Caminho_5" data-name="Caminho 5" d="M47.322,35.569c5.875,2.585,14.022.739,19.9-5.169,7.2-7.015,8.717-17.17,3.033-22.524-5.5-5.539-15.917-4.06-23.117,2.955-6.064,5.908-7.959,13.846-5.305,19.385C33.49,38.524,4.878,66.4,4.878,66.4l5.306,5.169L36.333,46.093,62.481,71.57,67.786,66.4,41.638,40.924Z" transform="translate(2.179)"/>
  </g>
</svg>
