<svg xmlns="http://www.w3.org/2000/svg" width="28.19" height="28.19" viewBox="0 0 28.19 28.19">
  <path id="Icon_awesome-facebook-square" data-name="Icon awesome-facebook-square" d="M25.169,2.25H3.02A3.02,3.02,0,0,0,0,5.27V27.419a3.02,3.02,0,0,0,3.02,3.02h8.636V20.856H7.692V16.345h3.964V12.907c0-3.911,2.328-6.071,5.894-6.071a24.016,24.016,0,0,1,3.494.3v3.838H19.077a2.256,2.256,0,0,0-2.543,2.437v2.929h4.328l-.692,4.511H16.533V30.44h8.636a3.02,3.02,0,0,0,3.02-3.02V5.27a3.02,3.02,0,0,0-3.02-3.02Z" transform="translate(0 -2.25)" fill="#fff"/>
</svg>
