<svg xmlns="http://www.w3.org/2000/svg" width="115.684" height="101.409" viewBox="0 0 115.684 101.409">
  <path id="Icon_map-food" data-name="Icon map-food" d="M116.149,29.892l-9.484,74.341H74.632L65.187,29.521h39.106l7.729-26.7L116.4,4.145l-7.416,25.691,7.16.055ZM60.659,72.9s1.2-9.64-15.412-9.64H18.793c-16.586,0-15.412,9.64-15.412,9.64H60.659ZM3.381,94.593s-1.174,9.64,15.412,9.64H45.249c16.61,0,15.412-9.64,15.412-9.64H3.381Zm54.793-4.82c2.719,0,4.914-2.685,4.914-6.023,0-3.357-2.2-6.028-4.914-6.028H5.637C2.93,77.723.72,80.393.72,83.75c0,3.338,2.21,6.023,4.917,6.023H58.174Z" transform="translate(-0.72 -2.825)"/>
</svg>
