<svg xmlns="http://www.w3.org/2000/svg" width="101.479" height="76.87" viewBox="0 0 101.479 76.87">
  <path id="Icon_map-clothing-store" data-name="Icon map-clothing-store" d="M103.218,19.48a2.428,2.428,0,0,1-.43,1.944L90.6,39.557a2.71,2.71,0,0,1-2.2,1.085,6.3,6.3,0,0,1-1.106-.113l-9.767-2.4V81.089a2.173,2.173,0,0,1-2.261,2.261H27.8a2.173,2.173,0,0,1-2.261-2.261V38.132l-8.772,2.419a2.067,2.067,0,0,1-2.464-.972L2.2,21.492a2.279,2.279,0,0,1-.317-1.9A2.2,2.2,0,0,1,3.13,18.146L27.8,6.48H39.1a2.16,2.16,0,0,1,2.261,2.261c0,4.657,6.534,7.958,11.191,7.958S63.97,13.421,63.97,8.741A2.173,2.173,0,0,1,66.231,6.48h11.3l24.417,11.44a2.432,2.432,0,0,1,1.266,1.56Z" transform="translate(-1.802 -6.48)"/>
</svg>
