<svg xmlns="http://www.w3.org/2000/svg" width="88.677" height="59.118" viewBox="0 0 88.677 59.118">
  <path id="Icon_awesome-newspaper" data-name="Icon awesome-newspaper" d="M84.982,4.5H13.548A3.7,3.7,0,0,0,9.853,8.195V9.426H3.695A3.7,3.7,0,0,0,0,13.121V55a8.621,8.621,0,0,0,8.621,8.621H81.287a7.39,7.39,0,0,0,7.39-7.39V8.195A3.7,3.7,0,0,0,84.982,4.5ZM8.621,56.228A1.232,1.232,0,0,1,7.39,55V16.816H9.853V55A1.232,1.232,0,0,1,8.621,56.228Zm36.333-2.463h-23.4a1.848,1.848,0,0,1-1.847-1.847V50.686a1.848,1.848,0,0,1,1.847-1.847h23.4A1.848,1.848,0,0,1,46.8,50.686v1.232A1.848,1.848,0,0,1,44.954,53.765Zm32.022,0h-23.4a1.848,1.848,0,0,1-1.847-1.847V50.686a1.848,1.848,0,0,1,1.847-1.847h23.4a1.848,1.848,0,0,1,1.847,1.847v1.232A1.848,1.848,0,0,1,76.976,53.765ZM44.954,38.985h-23.4a1.848,1.848,0,0,1-1.847-1.847V35.906a1.848,1.848,0,0,1,1.847-1.847h23.4A1.848,1.848,0,0,1,46.8,35.906v1.232A1.848,1.848,0,0,1,44.954,38.985Zm32.022,0h-23.4a1.848,1.848,0,0,1-1.847-1.847V35.906a1.848,1.848,0,0,1,1.847-1.847h23.4a1.848,1.848,0,0,1,1.847,1.847v1.232A1.848,1.848,0,0,1,76.976,38.985Zm0-14.779H21.553a1.848,1.848,0,0,1-1.847-1.847V16.2a1.848,1.848,0,0,1,1.847-1.847H76.976A1.848,1.848,0,0,1,78.824,16.2v6.158A1.848,1.848,0,0,1,76.976,24.206Z" transform="translate(0 -4.5)"/>
</svg>
