<svg xmlns="http://www.w3.org/2000/svg" width="77.82" height="67.661" viewBox="0 0 77.82 67.661">
  <path id="Icon_map-hair-care" data-name="Icon map-hair-care" d="M67.569,37.429a6.538,6.538,0,0,1,2.56-1.767L77.09,32.82a2.886,2.886,0,0,0,1.449-2.348V10.613a2.535,2.535,0,0,0-1.516-2.2S62.46,2.88,52.7,2.88c-9.079,0-21.631,4.788-21.631,4.788a16.19,16.19,0,0,1-3.124.777L2.33,11.2A1.886,1.886,0,0,0,.72,13.016V26.5a2.034,2.034,0,0,0,1.594,1.92l25.608,4.133a18.277,18.277,0,0,1,3.106.864L48.565,37.9A2.948,2.948,0,0,1,50.7,39.673L61.006,69.44a1.643,1.643,0,0,0,2.067,1.017l10.9-3.666a1.608,1.608,0,0,0,1.007-2.049L67.823,44.1c-.292-.845-.538-1.582-.55-1.642l-.013-.062c-.858-3.525.308-4.966.308-4.966ZM55.127,26.714a7.24,7.24,0,1,1,7.352-7.239A7.294,7.294,0,0,1,55.127,26.714Z" transform="translate(-0.72 -2.88)"/>
</svg>
