<svg xmlns="http://www.w3.org/2000/svg" width="76.166" height="87.047" viewBox="0 0 76.166 87.047">
  <path id="Icon_awesome-paperclip" data-name="Icon awesome-paperclip" d="M7.352,79.251a26.636,26.636,0,0,1,.236-36.992L43.25,5.781a19.026,19.026,0,0,1,27.316,0,19.791,19.791,0,0,1,0,27.589L39.48,65.137a12.685,12.685,0,0,1-18.358-.17,13.176,13.176,0,0,1,.247-18.184L45.806,21.82a2.72,2.72,0,0,1,3.847-.041l3.887,3.8a2.72,2.72,0,0,1,.041,3.847L29.145,54.392a2.3,2.3,0,0,0-.11,3.11,1.812,1.812,0,0,0,2.667.028L62.789,25.763a8.9,8.9,0,0,0,0-12.377,8.154,8.154,0,0,0-11.757,0L15.368,49.864a15.745,15.745,0,0,0-.2,21.815,14.5,14.5,0,0,0,20.922.049L65.339,41.806a2.72,2.72,0,0,1,3.847-.044l3.889,3.8a2.72,2.72,0,0,1,.044,3.847L43.866,79.333a25.368,25.368,0,0,1-36.514-.082Z" transform="translate(0 0)"/>
</svg>
