<svg xmlns="http://www.w3.org/2000/svg" width="75.59" height="75.59" viewBox="0 0 75.59 75.59">
  <path id="Icon_awesome-pizza-slice" data-name="Icon awesome-pizza-slice" d="M23.455.022a4.869,4.869,0,0,0-5.216,3.561l-2.187,8.308c27.7.811,46.439,19.283,47.611,46.8l8.407-2.33a4.871,4.871,0,0,0,3.487-5.3C72.475,24.373,50.312,2.557,23.455.022ZM14.822,16.558.08,72.587A2.393,2.393,0,0,0,3.033,75.5L58.989,59.986c-.63-25.821-18.172-43.132-44.167-43.421ZM18.9,61.419a4.725,4.725,0,1,1,4.725-4.725A4.725,4.725,0,0,1,18.9,61.419Zm7.087-22.442a4.725,4.725,0,1,1,4.725-4.725A4.725,4.725,0,0,1,25.984,38.978ZM41.338,54.332a4.725,4.725,0,1,1,4.725-4.725A4.725,4.725,0,0,1,41.338,54.332Z" transform="translate(-0.001 0)"/>
</svg>
