<svg xmlns="http://www.w3.org/2000/svg" width="88.604" height="66.453" viewBox="0 0 88.604 66.453">
  <path id="Icon_awesome-car" data-name="Icon awesome-car" d="M86.525,23.882H76.164l-2.88-7.2A19.284,19.284,0,0,0,55.29,4.5H33.313a19.29,19.29,0,0,0-18,12.183l-2.88,7.2H2.078a2.076,2.076,0,0,0-2.014,2.58L1.1,30.616a2.075,2.075,0,0,0,2.014,1.573H6.59A11,11,0,0,0,2.768,40.5V48.8a10.985,10.985,0,0,0,2.769,7.256v9.357a5.538,5.538,0,0,0,5.538,5.538h5.538a5.538,5.538,0,0,0,5.538-5.538V59.877h44.3v5.538a5.538,5.538,0,0,0,5.538,5.538h5.538a5.538,5.538,0,0,0,5.538-5.538V56.058A10.978,10.978,0,0,0,85.834,48.8V40.5a11,11,0,0,0-3.819-8.307h3.473A2.075,2.075,0,0,0,87.5,30.616l1.038-4.153a2.078,2.078,0,0,0-2.016-2.58ZM25.6,20.8a8.307,8.307,0,0,1,7.713-5.221H55.29A8.307,8.307,0,0,1,63,20.8l3.449,8.623h-44.3L25.6,20.8ZM16.613,48.767a5.224,5.224,0,0,1-5.538-5.52,5.224,5.224,0,0,1,5.538-5.52c3.323,0,8.307,4.968,8.307,8.281S19.935,48.767,16.613,48.767Zm55.377,0c-3.323,0-8.307.552-8.307-2.76s4.984-8.281,8.307-8.281a5.224,5.224,0,0,1,5.538,5.52,5.224,5.224,0,0,1-5.538,5.52Z" transform="translate(0 -4.5)"/>
</svg>
