<svg xmlns="http://www.w3.org/2000/svg" width="95.118" height="95.118" viewBox="0 0 95.118 95.118">
  <path id="Icon_material-local-grocery-store" data-name="Icon material-local-grocery-store" d="M30.035,79.094a9.512,9.512,0,1,0,9.512,9.512A9.5,9.5,0,0,0,30.035,79.094ZM1.5,3v9.512h9.512l17.121,36.1-6.42,11.652a9.2,9.2,0,0,0-1.189,4.566,9.54,9.54,0,0,0,9.512,9.512H87.106V64.827H32.033a1.177,1.177,0,0,1-1.189-1.189l.143-.571,4.28-7.752H70.7a9.467,9.467,0,0,0,8.323-4.9L96.047,19.55a4.646,4.646,0,0,0,.571-2.283,4.77,4.77,0,0,0-4.756-4.756H21.522L17.052,3ZM77.594,79.094a9.512,9.512,0,1,0,9.512,9.512A9.5,9.5,0,0,0,77.594,79.094Z" transform="translate(-1.5 -3)"/>
</svg>
