<svg xmlns="http://www.w3.org/2000/svg" width="28.404" height="23.069" viewBox="0 0 28.404 23.069">
  <path id="Icon_awesome-twitter" data-name="Icon awesome-twitter" d="M25.484,9.13c.018.252.018.5.018.757,0,7.7-5.857,16.563-16.563,16.563A16.45,16.45,0,0,1,0,23.836a12.042,12.042,0,0,0,1.406.072,11.658,11.658,0,0,0,7.227-2.487A5.832,5.832,0,0,1,3.19,17.384a7.341,7.341,0,0,0,1.1.09,6.157,6.157,0,0,0,1.532-.2,5.822,5.822,0,0,1-4.668-5.713v-.072a5.863,5.863,0,0,0,2.631.739,5.83,5.83,0,0,1-1.8-7.786,16.547,16.547,0,0,0,12,6.092A6.571,6.571,0,0,1,13.841,9.2,5.827,5.827,0,0,1,23.916,5.219a11.461,11.461,0,0,0,3.695-1.406,5.806,5.806,0,0,1-2.559,3.208,11.67,11.67,0,0,0,3.352-.9,12.514,12.514,0,0,1-2.92,3.01Z" transform="translate(0 -3.381)" fill="#fff"/>
</svg>
