<svg xmlns="http://www.w3.org/2000/svg" width="80.159" height="80.159" viewBox="0 0 80.159 80.159">
  <path id="Icon_awesome-spray-can" data-name="Icon awesome-spray-can" d="M35.07,5.01A5.011,5.011,0,0,0,30.06,0H20.04a5.011,5.011,0,0,0-5.01,5.01V20.04H35.07Zm40.08,15.03a5.01,5.01,0,1,0,5.01,5.01A5.011,5.011,0,0,0,75.149,20.04ZM35.07,25.05H15.03A15.03,15.03,0,0,0,0,40.08v35.07a5.011,5.011,0,0,0,5.01,5.01h40.08a5.011,5.011,0,0,0,5.01-5.01V40.08A15.03,15.03,0,0,0,35.07,25.05ZM25.05,65.129A12.525,12.525,0,1,1,37.575,52.6,12.525,12.525,0,0,1,25.05,65.129Zm50.1-50.1a5.01,5.01,0,1,0-5.01-5.01A5.011,5.011,0,0,0,75.149,15.03Zm-15.03,5.01a5.01,5.01,0,1,0,5.01,5.01A5.011,5.011,0,0,0,60.119,20.04ZM45.089,5.01a5.01,5.01,0,1,0,5.01,5.01A5.011,5.011,0,0,0,45.089,5.01Zm15.03,0a5.01,5.01,0,1,0,5.01,5.01A5.011,5.011,0,0,0,60.119,5.01Zm15.03,30.06a5.01,5.01,0,1,0,5.01,5.01A5.011,5.011,0,0,0,75.149,35.07Z"/>
</svg>
