<svg xmlns="http://www.w3.org/2000/svg" width="27.5" height="27.5" viewBox="0 0 27.5 27.5">
  <path id="Icon_awesome-phone-alt" data-name="Icon awesome-phone-alt" d="M26.715,19.433,20.7,16.855a1.289,1.289,0,0,0-1.5.371L16.532,20.48a19.909,19.909,0,0,1-9.517-9.517L10.27,8.3a1.286,1.286,0,0,0,.371-1.5L8.062.779A1.3,1.3,0,0,0,6.585.033L1,1.322A1.289,1.289,0,0,0,0,2.578,24.919,24.919,0,0,0,24.922,27.5a1.289,1.289,0,0,0,1.257-1l1.289-5.586a1.3,1.3,0,0,0-.752-1.482Z" transform="translate(0 0)" fill="#2f306f"/>
</svg>
