<svg xmlns="http://www.w3.org/2000/svg" width="94.943" height="66.455" viewBox="0 0 94.943 66.455">
  <path id="Icon_awesome-coffee" data-name="Icon awesome-coffee" d="M28.485,54.464H56.965a14.244,14.244,0,0,0,14.24-14.24h4.747a18.987,18.987,0,0,0,0-37.974H17.8a3.552,3.552,0,0,0-3.56,3.56V40.224A14.244,14.244,0,0,0,28.485,54.464ZM75.952,11.744a9.494,9.494,0,0,1,0,18.987H71.206V11.744ZM83.028,68.7H7.169c-7.061,0-9.048-9.494-5.34-9.494H88.353C92.062,59.211,90.1,68.7,83.028,68.7Z" transform="translate(0.004 -2.25)"/>
</svg>
