<svg xmlns="http://www.w3.org/2000/svg" width="28.206" height="28.199" viewBox="0 0 28.206 28.199">
  <path id="Icon_awesome-instagram" data-name="Icon awesome-instagram" d="M14.1,9.107a7.23,7.23,0,1,0,7.23,7.23A7.218,7.218,0,0,0,14.1,9.107Zm0,11.93a4.7,4.7,0,1,1,4.7-4.7A4.709,4.709,0,0,1,14.1,21.038ZM23.313,8.812a1.686,1.686,0,1,1-1.686-1.686A1.682,1.682,0,0,1,23.313,8.812ZM28.1,10.523a8.345,8.345,0,0,0-2.278-5.909,8.4,8.4,0,0,0-5.909-2.278c-2.328-.132-9.306-.132-11.635,0A8.388,8.388,0,0,0,2.372,4.608,8.373,8.373,0,0,0,.094,10.517c-.132,2.328-.132,9.306,0,11.635A8.345,8.345,0,0,0,2.372,28.06,8.411,8.411,0,0,0,8.28,30.338c2.328.132,9.306.132,11.635,0a8.345,8.345,0,0,0,5.909-2.278A8.4,8.4,0,0,0,28.1,22.151c.132-2.328.132-9.3,0-11.628ZM25.093,24.65a4.759,4.759,0,0,1-2.681,2.681c-1.856.736-6.261.566-8.312.566s-6.462.164-8.312-.566A4.759,4.759,0,0,1,3.108,24.65c-.736-1.856-.566-6.261-.566-8.312s-.164-6.462.566-8.312A4.759,4.759,0,0,1,5.788,5.345c1.856-.736,6.261-.566,8.312-.566s6.462-.164,8.312.566a4.759,4.759,0,0,1,2.681,2.681c.736,1.856.566,6.261.566,8.312S25.83,22.8,25.093,24.65Z" transform="translate(0.005 -2.238)" fill="#fff"/>
</svg>
