<svg xmlns="http://www.w3.org/2000/svg" width="113.611" height="52.074" viewBox="0 0 113.611 52.074">
  <path id="Icon_map-bakery" data-name="Icon map-bakery" d="M87.9,12a35.7,35.7,0,0,1-5.188,20.957c.776-9.489-3.07-22.6-3.07-22.6-3.285-.644-8.535.047-8.535.047.757,10.235-4.447,19.172-8.291,22.462a43.762,43.762,0,0,0-1.124-19.937c-5.2-1.311-12.654-.509-12.654-.509A30.831,30.831,0,0,1,44,33.375C45.1,24.958,40.6,14.163,40.6,14.163a48.388,48.388,0,0,0-9.9.994c3.207,5.73.646,18.325.646,18.325A33.192,33.192,0,0,0,23.719,17.11C-9.995,31.467-1.114,51.248,15.371,57.139c15.553,5.548,65.668,8.282,88.089-1.446S110.1,18.61,87.9,12Z" transform="translate(-0.72 -10.08)"/>
</svg>
